HIERARCHY
ROOT Hips
{
    OFFSET   0.000000   0.000000   0.000000
    CHANNELS 6 Xposition Yposition Zposition Zrotation Xrotation Yrotation
    JOINT Chest
    {
        OFFSET   0.000000   8.007230   0.000000
        CHANNELS 3 Zrotation Xrotation Yrotation
        JOINT Chest2
        {
            OFFSET   0.000000  22.077100   0.000000
            CHANNELS 3 Zrotation Xrotation Yrotation
            JOINT Neck
            {
                OFFSET   0.000000  23.254800   0.000000
                CHANNELS 3 Zrotation Xrotation Yrotation
                JOINT Head
                {
                    OFFSET   0.000010  14.370000   1.956600
                    CHANNELS 3 Zrotation Xrotation Yrotation
                    End Site
                    {
                        OFFSET   0.000000  19.566000   0.000000
                    }
                }
            }
            JOINT LeftCollar
            {
                OFFSET   3.911900  19.017000  -0.467062
                CHANNELS 3 Zrotation Xrotation Yrotation
                JOINT LeftShoulder
                {
                    OFFSET  10.383700   0.000000   0.000000
                    CHANNELS 3 Zrotation Xrotation Yrotation
                    JOINT LeftElbow
                    {
                        OFFSET  26.662100   0.001193   0.000835
                        CHANNELS 3 Zrotation Xrotation Yrotation
                        JOINT LeftWrist
                        {
                            OFFSET  28.869000  -0.000058  -0.000075
                            CHANNELS 3 Zrotation Xrotation Yrotation
                            JOINT LeftFinger0
                            {
                                OFFSET   2.044660  -2.323460   3.252850
                                CHANNELS 3 Zrotation Xrotation Yrotation
                                JOINT LeftFinger01
                                {
                                    OFFSET   3.088130   0.000000   0.000000
                                    CHANNELS 3 Zrotation Xrotation Yrotation
                                    JOINT LeftFinger02
                                    {
                                        OFFSET   2.639450   0.000000   0.000000
                                        CHANNELS 3 Zrotation Xrotation Yrotation
                                        End Site
                                        {
                                            OFFSET   2.582190   0.000000   0.000000
                                        }
                                    }
                                }
                            }
                            JOINT LeftFinger1
                            {
                                OFFSET   8.364480   0.000000   3.252850
                                CHANNELS 3 Zrotation Xrotation Yrotation
                                JOINT LeftFinger11
                                {
                                    OFFSET   4.646920   0.000000   0.000000
                                    CHANNELS 3 Zrotation Xrotation Yrotation
                                    JOINT LeftFinger12
                                    {
                                        OFFSET   2.323460   0.000000   0.000000
                                        CHANNELS 3 Zrotation Xrotation Yrotation
                                        End Site
                                        {
                                            OFFSET   2.273050   0.000000   0.000000
                                        }
                                    }
                                }
                            }
                            JOINT LeftFinger2
                            {
                                OFFSET   8.364490   0.000016   1.078090
                                CHANNELS 3 Zrotation Xrotation Yrotation
                                JOINT LeftFinger21
                                {
                                    OFFSET   5.111620   0.000000   0.000000
                                    CHANNELS 3 Zrotation Xrotation Yrotation
                                    JOINT LeftFinger22
                                    {
                                        OFFSET   2.788150   0.000012   0.000000
                                        CHANNELS 3 Zrotation Xrotation Yrotation
                                        End Site
                                        {
                                            OFFSET   2.727660   0.000000   0.000000
                                        }
                                    }
                                }
                            }
                            JOINT LeftFinger3
                            {
                                OFFSET   7.899780   0.000014  -1.078090
                                CHANNELS 3 Zrotation Xrotation Yrotation
                                JOINT LeftFinger31
                                {
                                    OFFSET   4.646930   0.000000   0.000000
                                    CHANNELS 3 Zrotation Xrotation Yrotation
                                    JOINT LeftFinger32
                                    {
                                        OFFSET   2.323470   0.000000   0.000000
                                        CHANNELS 3 Zrotation Xrotation Yrotation
                                        End Site
                                        {
                                            OFFSET   2.273050   0.000000   0.000000
                                        }
                                    }
                                }
                            }
                            JOINT LeftFinger4
                            {
                                OFFSET   7.435090   0.000000  -3.252850
                                CHANNELS 3 Zrotation Xrotation Yrotation
                                JOINT LeftFinger41
                                {
                                    OFFSET   3.717550   0.000000   0.000000
                                    CHANNELS 3 Zrotation Xrotation Yrotation
                                    JOINT LeftFinger42
                                    {
                                        OFFSET   1.858770   0.000000   0.000000
                                        CHANNELS 3 Zrotation Xrotation Yrotation
                                        End Site
                                        {
                                            OFFSET   1.818440   0.000000   0.000000
                                        }
                                    }
                                }
                            }
                        }
                    }
                }
            }
            JOINT RightCollar
            {
                OFFSET  -3.911900  19.017000  -0.467063
                CHANNELS 3 Zrotation Xrotation Yrotation
                JOINT RightShoulder
                {
                    OFFSET -10.383700   0.000023   0.000000
                    CHANNELS 3 Zrotation Xrotation Yrotation
                    JOINT RightElbow
                    {
                        OFFSET -26.662100   0.001246   0.001011
                        CHANNELS 3 Zrotation Xrotation Yrotation
                        JOINT RightWrist
                        {
                            OFFSET -28.869000  -0.000026  -0.000078
                            CHANNELS 3 Zrotation Xrotation Yrotation
                            JOINT RightFinger0
                            {
                                OFFSET  -2.044660  -2.323490   3.252850
                                CHANNELS 3 Zrotation Xrotation Yrotation
                                JOINT RightFinger01
                                {
                                    OFFSET  -3.088130   0.000000   0.000000
                                    CHANNELS 3 Zrotation Xrotation Yrotation
                                    JOINT RightFinger02
                                    {
                                        OFFSET  -2.639460   0.000000   0.000000
                                        CHANNELS 3 Zrotation Xrotation Yrotation
                                        End Site
                                        {
                                            OFFSET  -2.582190   0.000000   0.000000
                                        }
                                    }
                                }
                            }
                            JOINT RightFinger1
                            {
                                OFFSET  -8.364480   0.000000   3.252850
                                CHANNELS 3 Zrotation Xrotation Yrotation
                                JOINT RightFinger11
                                {
                                    OFFSET  -4.646920   0.000000   0.000000
                                    CHANNELS 3 Zrotation Xrotation Yrotation
                                    JOINT RightFinger12
                                    {
                                        OFFSET  -2.323470   0.000000   0.000000
                                        CHANNELS 3 Zrotation Xrotation Yrotation
                                        End Site
                                        {
                                            OFFSET  -2.273050   0.000000   0.000000
                                        }
                                    }
                                }
                            }
                            JOINT RightFinger2
                            {
                                OFFSET  -8.364480   0.000000   1.078090
                                CHANNELS 3 Zrotation Xrotation Yrotation
                                JOINT RightFinger21
                                {
                                    OFFSET  -5.111620   0.000000   0.000000
                                    CHANNELS 3 Zrotation Xrotation Yrotation
                                    JOINT RightFinger22
                                    {
                                        OFFSET  -2.788160   0.000000   0.000000
                                        CHANNELS 3 Zrotation Xrotation Yrotation
                                        End Site
                                        {
                                            OFFSET  -2.727660   0.000000   0.000000
                                        }
                                    }
                                }
                            }
                            JOINT RightFinger3
                            {
                                OFFSET  -7.899780   0.000000  -1.078090
                                CHANNELS 3 Zrotation Xrotation Yrotation
                                JOINT RightFinger31
                                {
                                    OFFSET  -4.646930   0.000000   0.000000
                                    CHANNELS 3 Zrotation Xrotation Yrotation
                                    JOINT RightFinger32
                                    {
                                        OFFSET  -2.323470   0.000000   0.000000
                                        CHANNELS 3 Zrotation Xrotation Yrotation
                                        End Site
                                        {
                                            OFFSET  -2.273050   0.000000   0.000000
                                        }
                                    }
                                }
                            }
                            JOINT RightFinger4
                            {
                                OFFSET  -7.435090   0.000000  -3.252850
                                CHANNELS 3 Zrotation Xrotation Yrotation
                                JOINT RightFinger41
                                {
                                    OFFSET  -3.717550   0.000000   0.000000
                                    CHANNELS 3 Zrotation Xrotation Yrotation
                                    JOINT RightFinger42
                                    {
                                        OFFSET  -1.858760   0.000000   0.000000
                                        CHANNELS 3 Zrotation Xrotation Yrotation
                                        End Site
                                        {
                                            OFFSET  -1.818440   0.000000   0.000000
                                        }
                                    }
                                }
                            }
                        }
                    }
                }
            }
        }
    }
    JOINT LeftHip
    {
        OFFSET   9.783010   0.000000   0.000000
        CHANNELS 3 Zrotation Xrotation Yrotation
        JOINT LeftKnee
        {
            OFFSET   0.000073 -41.789100   0.001749
            CHANNELS 3 Zrotation Xrotation Yrotation
            JOINT LeftAnkle
            {
                OFFSET   0.000111 -41.133200  -0.000179
                CHANNELS 3 Zrotation Xrotation Yrotation
                JOINT LeftToe
                {
                    OFFSET   0.000000  -6.358960  14.674500
                    CHANNELS 3 Zrotation Xrotation Yrotation
                    End Site
                    {
                        OFFSET   0.000000   0.000000   3.913200
                    }
                }
            }
        }
    }
    JOINT RightHip
    {
        OFFSET  -9.783010   0.000000   0.000000
        CHANNELS 3 Zrotation Xrotation Yrotation
        JOINT RightKnee
        {
            OFFSET   0.000424 -41.789200   0.005205
            CHANNELS 3 Zrotation Xrotation Yrotation
            JOINT RightAnkle
            {
                OFFSET   0.000000 -41.133200  -0.000155
                CHANNELS 3 Zrotation Xrotation Yrotation
                JOINT RightToe
                {
                    OFFSET   0.000000  -6.358960  14.674500
                    CHANNELS 3 Zrotation Xrotation Yrotation
                    End Site
                    {
                        OFFSET   0.000000   0.000000   3.913200
                    }
                }
            }
        }
    }
}
MOTION
Frames: 4
Frame Time:   0.016667
 -1.352500  89.506700  -2.307030  -4.450460 -10.460400  -7.700550   1.117400   6.549870   0.869840   2.155230  13.114900   1.626120   1.047480  -0.201830   0.003476   1.720900  -0.409051   1.439600  -5.236160  -3.693980   1.588790 -73.661600  18.864200  -2.342210  -1.397970  -4.696360 -16.545700  16.030900 -13.473700   8.531510  47.143800  44.593600 -81.614600 -30.733800   0.001655   0.014365 -10.373900   0.000845   0.006170 -37.565500   5.469460  -7.067460 -31.012100  -0.000931  -0.001286 -21.708500   0.004458  -0.008666 -31.221300  -2.262960   3.723380 -46.954000  -0.003217  -0.006569 -31.263500   0.000112  -0.014567 -31.267700  -2.263810   3.721920 -47.011700   0.000933  -0.013096 -31.309800   0.001283   0.000423 -40.568900  -2.835190   3.308760 -60.967400   0.002667  -0.001007 -40.610200   0.008988  -0.005948   9.751350  -0.596330   7.401770  69.362800  11.350800  -6.278540  -0.765151  -9.857080  17.301800 -13.565600  -3.530300  -1.204790 -34.905800  29.893700  55.882300  37.793500  -0.004398   0.003498  14.489300  -0.000240   0.004462  36.466400  -0.719891  -0.973982  29.841100   0.003881  -0.003046  20.888800   0.001493  -0.003318  33.108200  -3.383880  -5.172140  49.891600  -0.003918   0.007224  33.227800  -0.004613   0.005132  34.205800  -3.482420  -5.106410  51.541600  -0.001604   0.011325  34.326700  -0.006503   0.002303  41.297200  -4.086340  -4.637760  62.194200   0.003573  -0.008424  41.421300   0.000496  -0.008516   2.442820  13.321700   3.847430   1.564840   0.126505   6.776000  -1.409310  -3.593040   4.393530   0.000000   0.000000  -0.000000   5.600230   8.610990  -1.854350  -2.371970   6.867060  -6.759170   0.727653  -5.562200   2.930260  -0.000000   0.000000   0.000000
 -1.345580  89.506600  -2.319120  -4.453130 -10.473000  -7.700870   1.117320   6.561000   0.869816   2.154960  13.137200   1.625940   1.056640  -0.189627   0.003439   1.735950  -0.384275   1.413360  -5.231030  -3.693970   1.595800 -73.658000  18.880400  -2.351050  -1.404370  -4.715600 -16.551100  16.031400 -13.475600   8.531850  47.148800  44.593300 -81.612600 -30.733800   0.001660   0.014367 -10.374200   0.000842   0.006172 -37.565500   5.469460  -7.067720 -31.012100  -0.000932  -0.001282 -21.708500   0.004457  -0.008666 -31.221300  -2.262980   3.723420 -46.948100  -0.003216  -0.006562 -31.263500   0.000107  -0.014567 -31.267700  -2.263700   3.721950 -47.011700   0.000933  -0.013092 -31.309800   0.001279   0.000432 -40.568900  -2.835220   3.308790 -60.959600   0.002662  -0.001000 -40.610200   0.008983  -0.005946   9.755310  -0.601645   7.409250  69.354000  11.355400  -6.275840  -0.770369  -9.832040  17.335500 -13.563600  -3.544600  -1.169570 -34.923500  29.912600  55.880800  37.784500  -0.004342   0.003461  14.482800  -0.000257   0.004483  36.448400  -0.711523  -0.963476  29.826200   0.003868  -0.003045  20.878400   0.001519  -0.003314  33.098800  -3.384150  -5.173930  49.877700  -0.003895   0.007206  33.218600  -0.004628   0.005110  34.197600  -3.482780  -5.108060  51.531000  -0.001602   0.011303  34.319600  -0.006540   0.002267  41.271600  -4.086300  -4.640700  62.156000   0.003518  -0.008383  41.395900   0.000500  -0.008480   2.440300  13.356700   3.848250   1.564890   0.073032   6.777110  -1.402610  -3.562280   4.393680   0.000000   0.000000   0.000000   5.604710   8.591560  -1.847500  -2.386980   6.905550  -6.736760   0.748056  -5.578070   2.915180   0.000000   0.000000  -0.000000
 -1.335440  89.506500  -2.338490  -4.458550 -10.498200  -7.701500   1.117210   6.581340   0.869544   2.154590  13.177900   1.625030   1.072890  -0.168427   0.003190   1.762660  -0.341289   1.367160  -5.221580  -3.693960   1.602820 -73.651400  18.912000  -2.367170  -1.414820  -4.747320 -16.560400  16.032400 -13.480900   8.532320  47.153800  44.593000 -81.610600 -30.733800   0.001668   0.014372 -10.374700   0.000839   0.006179 -37.565400   5.469450  -7.068090 -31.012100  -0.000936  -0.001279 -21.708500   0.004455  -0.008667 -31.221300  -2.263010   3.723500 -46.942200  -0.003216  -0.006543 -31.263500   0.000089  -0.014567 -31.267700  -2.263450   3.722030 -47.011700   0.000930  -0.013084 -31.309800   0.001265   0.000458 -40.568900  -2.835300   3.308840 -60.951700   0.002652  -0.000979 -40.610100   0.008968  -0.005941   9.763800  -0.615899   7.416750  69.341100  11.371500  -6.265320  -0.781206  -9.806040  17.387500 -13.560900  -3.568880  -1.120170 -34.945600  29.936000  55.872200  37.775100  -0.004230   0.003381  14.476300  -0.000299   0.004528  36.420100  -0.703154  -0.952969  29.803000   0.003841  -0.003042  20.862100   0.001584  -0.003304  33.084600  -3.386050  -5.180070  49.856800  -0.003842   0.007161  33.204600  -0.004665   0.005057  34.188900  -3.485350  -5.113890  51.516900  -0.001598   0.011252  34.310200  -0.006632   0.002186  41.232100  -4.086240  -4.648280  62.097100   0.003410  -0.008294  41.356600   0.000508  -0.008399   2.436540  13.409700   3.849370   1.564870   0.001007   6.778230  -1.392310  -3.519870   4.393920   0.000000   0.000000  -0.000000   5.614870   8.569230  -1.837750  -2.410240   6.968010  -6.714700   0.776206  -5.605130   2.893680  -0.000000   0.000000   0.000000
 -1.330440  89.506400  -2.352500  -4.464060 -10.526400  -7.697700   1.117130   6.601290   0.868684   2.154340  13.217800   1.622960   1.087650  -0.150351   0.002560   1.786900  -0.304814   1.326400  -5.212360  -3.695680   1.600640 -73.644400  18.945800  -2.384300  -1.422060  -4.771720 -16.567900  16.033500 -13.490700   8.532600  47.153600  44.594300 -81.619300 -30.739000   0.001672   0.014381 -10.374900   0.000849   0.006196 -37.573500   5.469910  -7.068250 -31.018600  -0.000944  -0.001280 -21.713100   0.004452  -0.008668 -31.227700  -2.263060   3.723610 -46.951900  -0.003216  -0.006513 -31.270000   0.000047  -0.014567 -31.272700  -2.263110   3.722130 -47.019100   0.000923  -0.013071 -31.314600   0.001242   0.000500 -40.568800  -2.835390   3.308910 -60.956400   0.002639  -0.000947 -40.610100   0.008944  -0.005934   9.777030  -0.638813   7.416370  69.335000  11.401900  -6.250300  -0.800157  -9.804420  17.425300 -13.560600  -3.594440  -1.102230 -34.950500  29.938600  55.847600  37.774600  -0.004076   0.003253  14.476800  -0.000363   0.004598  36.401600  -0.706423  -0.958013  29.788000   0.003806  -0.003039  20.851600   0.001683  -0.003291  33.075500  -3.394680  -5.195700  49.844300  -0.003765   0.007093  33.196300  -0.004721   0.004979  34.188500  -3.495030  -5.128920  51.512900  -0.001593   0.011177  34.307600  -0.006773   0.002069  41.206000  -4.094580  -4.663940  62.059100   0.003268  -0.008167  41.331300   0.000520  -0.008286   2.434440  13.440600   3.849840   1.564570  -0.020639   6.774520  -1.385720  -3.503980   4.394080  -0.000000   0.000000   0.000000   5.629740   8.565840  -1.833650  -2.426840   7.013740  -6.717930   0.784106  -5.626750   2.885340  -0.000000   0.000000  -0.000000
